# xmcd
#
# Track frame offsets:
#	150
#	19397
#	34350
#	49060
#	65030
#	79980
#	92027
#	105780
#	121877
#	133255
#	147680
#	165175
#	181045
#	195310
#
# Disc length: 2825 seconds
#
# Revision: 0
# Processed by: cddbd v1.5.2PL0 Copyright (c) Steve Scherf et al.
# Submitted via: audiograbber 1.83.01
#
DISCID=bd0b070e
DTITLE=Emmylou Harris - THM PL27
DYEAR=2002
DGENRE=Karaoke
TTITLE0=Emmylou Harris and Dan Fogelberg - Only the Heart May Know 
TTITLE1=Emmylou Harris - Blue Kentucky Girl
TTITLE2=Emmylou Harris - Heartbreak Hill
TTITLE3=Emmylou Harris - Heaven Only Knows
TTITLE4=Emmylou Harris - High Powered Love
TTITLE5=Emmylou Harris - If I Could Only Win Your Love
TTITLE6=Emmylou Harris - Last Date
TTITLE7=Emmylou Harris - Making Believe
TTITLE8=Emmylou Harris - Mr. Sandman
TTITLE9=Emmylou Harris - One Of These Days
TTITLE10=Emmylou Harris - Rollin' And Ramblin'
TTITLE11=Emmylou Harris - Thanks To You
TTITLE12=Emmylou Harris - Two More Bottles Of Wine
TTITLE13=Emmylou Harris - Wayfaring Stranger
EXTD=
EXTT0=
EXTT1=
EXTT2=
EXTT3=
EXTT4=
EXTT5=
EXTT6=
EXTT7=
EXTT8=
EXTT9=
EXTT10=
EXTT11=
EXTT12=
EXTT13=
PLAYORDER=
